<svg width="112" height="25" viewBox="0 0 112 25" fill="none" xmlns="http://www.w3.org/2000/svg">
<path d="M4.23782 2.27295C4.64096 2.27297 5.01192 2.49985 5.20485 2.86425L10.0778 12.0685C10.3516 12.5856 10.9808 12.7764 11.4832 12.4946C11.9856 12.2128 12.171 11.5651 11.8972 11.048L8.13903 3.94919C7.73908 3.19373 8.27026 2.27295 9.10606 2.27295H20.6355C21.4543 2.27295 21.987 3.15999 21.6209 3.91378L12.8581 21.9535C12.4522 22.7891 11.2941 22.7891 10.8881 21.9535L2.12549 3.91378C1.75935 3.15999 2.29195 2.27295 3.11067 2.27295H4.23782Z" fill="#A6A6A6"/>
<path d="M33.9222 4.93018C37.6836 4.93018 41.1502 6.31173 42.2632 9.91344C42.4555 10.5353 41.9629 11.1205 41.329 11.1205H38.4899C38.0132 11.1205 37.6118 10.7795 37.4279 10.3268C36.8826 8.98489 35.8306 8.22071 33.9222 8.22071C31.2252 8.22075 29.9863 9.88658 29.9863 12.4161C29.9863 14.9663 31.2252 16.6321 33.9222 16.6321C35.8306 16.6321 36.8826 15.8681 37.4279 14.5261C37.6118 14.0735 38.0132 13.7324 38.4899 13.7324H41.329C41.9629 13.7324 42.4555 14.3177 42.2632 14.9396C41.1502 18.5412 37.6834 19.9226 33.9222 19.9226C29.3671 19.9226 25.1914 17.9278 25.1914 12.4161C25.1914 6.92511 29.3671 4.9302 33.9222 4.93018Z" fill="#A6A6A6"/>
<path d="M72.6277 5.21924C73.2002 5.21924 73.6642 5.69684 73.6642 6.28606V7.48401C73.6642 8.07323 73.2002 8.55083 72.6277 8.55083H65.5539C65.0133 8.55083 64.575 9.00209 64.575 9.55864C64.575 10.1152 65.0133 10.5663 65.5539 10.5663H72.6205C73.1927 10.5663 73.6568 11.0439 73.6568 11.6331V12.8311C73.6568 13.4203 73.1929 13.898 72.6205 13.898H65.6115C65.039 13.898 64.575 14.3756 64.575 14.9649V15.2372C64.575 15.8264 65.039 16.3042 65.6115 16.3042H72.607C73.1793 16.3042 73.6433 16.7818 73.6433 17.371V18.5485C73.6433 19.1376 73.1793 19.6153 72.607 19.6153H60.8761C60.3039 19.6152 59.8398 19.1376 59.8398 18.5485V6.28606C59.8398 5.69688 60.3039 5.2193 60.8761 5.21924H72.6277Z" fill="#A6A6A6"/>
<path d="M53.0548 5.21924C56.9108 5.21924 59.0287 7.04953 59.0287 9.9904C59.0287 11.6747 58.3846 12.8926 57.2717 13.7008C56.7408 14.0863 56.4971 14.8301 56.8488 15.3926L58.9462 18.7481C59.1803 19.1226 58.9189 19.6153 58.4864 19.6153H54.9676C54.6104 19.6153 54.2786 19.4258 54.0891 19.1141L51.8609 15.4479C51.6715 15.1362 51.3395 14.9469 50.9822 14.9469H48.8769C48.3044 14.9469 47.8404 15.4245 47.8404 16.0137V18.5485C47.8404 19.1376 47.3763 19.6153 46.8039 19.6153H44.1418C43.5693 19.6153 43.1055 19.1376 43.1055 18.5485V6.28606C43.1055 5.69684 43.5693 5.21924 44.1418 5.21924H53.0548ZM48.8769 8.55083C48.3044 8.55083 47.8404 9.02845 47.8404 9.61763V10.5894C47.8404 11.1786 48.3044 11.6563 48.8769 11.6564H52.3756C53.7742 11.6564 54.2135 10.9158 54.2135 9.9904C54.2135 9.0444 53.6343 8.55083 52.3756 8.55083H48.8769Z" fill="#A6A6A6"/>
<path d="M88.4923 6.28606C88.4923 5.69684 88.0283 5.21924 87.4558 5.21924H75.7043C75.132 5.2193 74.668 5.69688 74.668 6.28606V18.5485C74.668 19.1376 75.132 19.6152 75.7043 19.6153H87.4352C88.0074 19.6153 88.4715 19.1376 88.4715 18.5485V17.371C88.4715 16.7818 88.0074 16.3042 87.4352 16.3042H80.4396C79.8671 16.3042 79.4031 15.8264 79.4031 15.2372V14.9649C79.4031 14.3756 79.8671 13.898 80.4396 13.898H87.4486C88.0211 13.898 88.4849 13.4203 88.4849 12.8311V11.6331C88.4849 11.0439 88.0209 10.5663 87.4486 10.5663H80.382C79.8414 10.5663 79.4031 10.1152 79.4031 9.55864C79.4031 9.00209 79.8414 8.55083 80.382 8.55083H87.4558C88.0283 8.55083 88.4923 8.07323 88.4923 7.48401V6.28606Z" fill="#A6A6A6"/>
<path d="M96.6545 5.92777C96.5073 5.50292 96.1163 5.21928 95.6782 5.21924H90.5326C89.9604 5.21924 89.4961 5.69686 89.4961 6.28606V18.5485C89.4961 19.1377 89.9604 19.6153 90.5326 19.6153H93.1947C93.7671 19.6153 94.2312 19.1377 94.2314 18.5485V16.2273C94.2314 15.0366 95.8393 14.7408 96.24 15.8578L97.3375 18.9179C97.4878 19.337 97.876 19.6153 98.31 19.6153H101.061C101.495 19.6153 101.883 19.337 102.033 18.9179L103.131 15.8578C103.532 14.7408 105.14 15.0366 105.14 16.2273V18.5485C105.14 19.1377 105.604 19.6153 106.176 19.6153H108.838C109.411 19.6153 109.875 19.1377 109.875 18.5485V6.28606C109.875 5.69686 109.411 5.21924 108.838 5.21924H103.693C103.255 5.21928 102.864 5.50292 102.717 5.92777L100.662 11.861C100.335 12.8057 99.0364 12.8057 98.7092 11.861L96.6545 5.92777Z" fill="#A6A6A6"/>
</svg>
