<svg width="32" height="32" viewBox="0 0 32 32" fill="none" xmlns="http://www.w3.org/2000/svg">
<path d="M14.7207 3.23389C18.3782 0.88494 23.466 1.97632 26.0215 5.70166C27.264 7.43382 27.756 9.61696 27.3574 11.7524C27.1933 12.7489 26.8184 13.6981 26.2559 14.5522C27.0765 16.0946 27.3341 17.8747 27.0293 19.6069C26.6776 21.6712 25.4585 23.4985 23.7002 24.6138L17.252 28.7661C13.5946 31.1149 8.53112 30.0234 5.95215 26.2983C4.73298 24.5661 4.24011 22.3829 4.61523 20.271C4.77934 19.2745 5.15422 18.3253 5.7168 17.4712C4.89626 15.9288 4.63858 14.1487 4.94336 12.4165C5.29511 10.3523 6.51418 8.52487 8.27246 7.40967L14.7207 3.23389ZM23.374 7.41064C22.1549 5.63098 19.9743 4.80043 17.8877 5.34619C17.419 5.48852 16.9736 5.6781 16.5752 5.93896L10.1279 10.0923C9.07302 10.7566 8.32245 11.8713 8.11133 13.105C7.87688 14.3863 8.18145 15.6918 8.9082 16.7358C10.1274 18.5155 12.3079 19.3461 14.3945 18.8003C14.8633 18.6817 15.3086 18.4919 15.707 18.231L18.1689 16.6411C18.286 16.57 18.4269 16.5225 18.5674 16.4751C19.2004 16.309 19.8573 16.5465 20.2324 17.0923C20.4433 17.4007 20.537 17.8036 20.4668 18.1831C20.3965 18.5628 20.1857 18.8719 19.8574 19.0854L13.4336 23.2378C13.3165 23.3089 13.1757 23.3564 13.0352 23.4038C12.4022 23.5699 11.7453 23.3089 11.3701 22.7632C11.1826 22.4785 11.0889 22.1226 11.1123 21.7905L11.1357 21.5532L10.9014 21.4819C9.98708 21.1972 9.14278 20.7701 8.36914 20.2007L8.04102 19.9634L7.92383 20.3423C7.87695 20.5558 7.83008 20.746 7.7832 20.9595C7.57219 22.2408 7.85326 23.5463 8.60352 24.5903C9.82269 26.3699 12.0032 27.2005 14.0898 26.6548C14.5587 26.5124 15.0038 26.322 15.4023 26.061L21.8506 21.9087C22.9055 21.2443 23.6552 20.1288 23.8662 18.895C24.0771 17.6138 23.796 16.3091 23.0459 15.2651C21.8267 13.4855 19.6462 12.6549 17.5596 13.2007C17.0908 13.343 16.6455 13.5326 16.2471 13.7935L13.7852 15.3833C13.668 15.4544 13.5273 15.5019 13.3867 15.5493C12.7537 15.7154 12.0968 15.4779 11.7217 14.9321C11.5109 14.6238 11.4171 14.2208 11.4873 13.8413C11.5576 13.4616 11.7684 13.1525 12.0967 12.939L18.5205 8.78662C18.6377 8.71543 18.7792 8.66806 18.9199 8.62061C19.5528 8.45471 20.2089 8.69215 20.584 9.23779C20.7715 9.52252 20.8652 9.87828 20.8418 10.2104L20.8184 10.4478L21.0527 10.519C21.967 10.8038 22.8113 11.2309 23.585 11.8003L23.9131 12.0376L24.0303 11.6577C24.1005 11.4444 24.1475 11.2548 24.1943 11.0415C24.4053 9.76016 24.1243 8.45471 23.374 7.41064Z" fill="#A6A6A6"/>
</svg>
